<svg xmlns="http://www.w3.org/2000/svg" viewBox="0 0 48 48" width="48" height="48" role="img" aria-label="WickOps favicon">
  <rect width="48" height="48" rx="11" fill="#0A0F1E"></rect>
  <g transform="translate(8 8) scale(0.32)">
    <g fill="#2563EB">
      <circle cx="50" cy="50" r="33"></circle>
      <polygon points="41,18 44,5 56,5 59,18" transform="rotate(0 50 50)"></polygon>
      <polygon points="41,18 44,5 56,5 59,18" transform="rotate(45 50 50)"></polygon>
      <polygon points="41,18 44,5 56,5 59,18" transform="rotate(90 50 50)"></polygon>
      <polygon points="41,18 44,5 56,5 59,18" transform="rotate(135 50 50)"></polygon>
      <polygon points="41,18 44,5 56,5 59,18" transform="rotate(180 50 50)"></polygon>
      <polygon points="41,18 44,5 56,5 59,18" transform="rotate(225 50 50)"></polygon>
      <polygon points="41,18 44,5 56,5 59,18" transform="rotate(270 50 50)"></polygon>
      <polygon points="41,18 44,5 56,5 59,18" transform="rotate(315 50 50)"></polygon>
    </g>
    <circle cx="50" cy="50" r="20" fill="#0A0F1E"></circle>
  </g>
</svg>
