<svg xmlns="http://www.w3.org/2000/svg" viewBox="0 0 600 180" width="600" height="180" role="img" aria-label="WickOps logo">
  <rect x="16" y="16" width="148" height="148" rx="34" fill="#0A0F1E"></rect>
  <g transform="translate(44 44) scale(0.92)">
    <g fill="#2563EB">
      <circle cx="50" cy="50" r="33"></circle>
      <polygon points="41,18 44,5 56,5 59,18" transform="rotate(0 50 50)"></polygon>
      <polygon points="41,18 44,5 56,5 59,18" transform="rotate(45 50 50)"></polygon>
      <polygon points="41,18 44,5 56,5 59,18" transform="rotate(90 50 50)"></polygon>
      <polygon points="41,18 44,5 56,5 59,18" transform="rotate(135 50 50)"></polygon>
      <polygon points="41,18 44,5 56,5 59,18" transform="rotate(180 50 50)"></polygon>
      <polygon points="41,18 44,5 56,5 59,18" transform="rotate(225 50 50)"></polygon>
      <polygon points="41,18 44,5 56,5 59,18" transform="rotate(270 50 50)"></polygon>
      <polygon points="41,18 44,5 56,5 59,18" transform="rotate(315 50 50)"></polygon>
    </g>
    <circle cx="50" cy="50" r="20" fill="#0A0F1E"></circle>
  </g>
  <text x="198" y="118" font-family="Inter, system-ui, sans-serif" font-weight="800" font-size="76" letter-spacing="-2.5" fill="#0A0F1E">WickOps</text>
</svg>
