<svg xmlns="http://www.w3.org/2000/svg" viewBox="0 0 100 100" width="100" height="100" role="img" aria-label="WickOps gear mark">
  <defs>
    <mask id="wo-bore">
      <rect width="100" height="100" fill="#fff"></rect>
      <circle cx="50" cy="50" r="20" fill="#000"></circle>
    </mask>
  </defs>
  <g fill="#2563EB" mask="url(#wo-bore)">
    <circle cx="50" cy="50" r="33"></circle>
    <polygon points="41,18 44,5 56,5 59,18" transform="rotate(0 50 50)"></polygon>
    <polygon points="41,18 44,5 56,5 59,18" transform="rotate(45 50 50)"></polygon>
    <polygon points="41,18 44,5 56,5 59,18" transform="rotate(90 50 50)"></polygon>
    <polygon points="41,18 44,5 56,5 59,18" transform="rotate(135 50 50)"></polygon>
    <polygon points="41,18 44,5 56,5 59,18" transform="rotate(180 50 50)"></polygon>
    <polygon points="41,18 44,5 56,5 59,18" transform="rotate(225 50 50)"></polygon>
    <polygon points="41,18 44,5 56,5 59,18" transform="rotate(270 50 50)"></polygon>
    <polygon points="41,18 44,5 56,5 59,18" transform="rotate(315 50 50)"></polygon>
  </g>
</svg>
